<mxfile host="app.diagrams.net" modified="2024-02-17T22:58:16.886Z" agent="Mozilla/5.0 (Windows NT 10.0; Win64; x64) AppleWebKit/537.36 (KHTML, like Gecko) Chrome/121.0.0.0 Safari/537.36" etag="5t81JyYF5Jn51vCXdmzp" version="23.1.4" type="device">
  <diagram name="Page-1" id="0783ab3e-0a74-02c8-0abd-f7b4e66b4bec">
    <mxGraphModel dx="3131" dy="1411" grid="0" gridSize="10" guides="1" tooltips="1" connect="1" arrows="1" fold="1" page="0" pageScale="1" pageWidth="850" pageHeight="1100" background="none" math="0" shadow="0">
      <root>
        <mxCell id="0" />
        <mxCell id="1" parent="0" />
        <mxCell id="10VLK3irHOZnj4mH4-Rl-1" value="" style="group" parent="1" vertex="1" connectable="0">
          <mxGeometry x="-80" y="-10" width="840" height="920" as="geometry" />
        </mxCell>
        <mxCell id="1c1d494c118603dd-2" value="Homeowner" style="swimlane;html=1;startSize=20;container=0;" parent="10VLK3irHOZnj4mH4-Rl-1" vertex="1">
          <mxGeometry x="90" y="40" width="320" height="880" as="geometry" />
        </mxCell>
        <mxCell id="lcUcM92FQhq3fFJMBo8H-26" value="Change Default Pre-Expiry?" style="text;html=1;align=center;verticalAlign=middle;whiteSpace=wrap;rounded=0;" parent="1c1d494c118603dd-2" vertex="1">
          <mxGeometry x="10" y="390" width="87.5" height="20" as="geometry" />
        </mxCell>
        <mxCell id="lcUcM92FQhq3fFJMBo8H-27" value="[Yes]" style="text;html=1;align=center;verticalAlign=middle;whiteSpace=wrap;rounded=0;" parent="1c1d494c118603dd-2" vertex="1">
          <mxGeometry x="60" y="440" width="50" height="20" as="geometry" />
        </mxCell>
        <mxCell id="lcUcM92FQhq3fFJMBo8H-28" value="[No]" style="text;html=1;align=center;verticalAlign=middle;whiteSpace=wrap;rounded=0;" parent="1c1d494c118603dd-2" vertex="1">
          <mxGeometry x="130" y="440" width="50" height="20" as="geometry" />
        </mxCell>
        <mxCell id="AcevZHNtAe4sHsJASTdG-48" value="View Nearby Food Bank Locations" style="rounded=1;whiteSpace=wrap;html=1;shadow=0;comic=0;labelBackgroundColor=none;strokeWidth=1;fontFamily=Verdana;fontSize=12;align=center;arcSize=50;" parent="1c1d494c118603dd-2" vertex="1">
          <mxGeometry x="120" y="575" width="125" height="40" as="geometry" />
        </mxCell>
        <mxCell id="AcevZHNtAe4sHsJASTdG-8" value="Edit Pre-Expiry Period" style="rounded=1;whiteSpace=wrap;html=1;shadow=0;comic=0;labelBackgroundColor=none;strokeWidth=1;fontFamily=Verdana;fontSize=12;align=center;arcSize=50;" parent="1c1d494c118603dd-2" vertex="1">
          <mxGeometry x="40" y="490" width="140" height="30" as="geometry" />
        </mxCell>
        <mxCell id="1c1d494c118603dd-3" value="Home Food Waste Management" style="swimlane;html=1;startSize=20;container=0;" parent="10VLK3irHOZnj4mH4-Rl-1" vertex="1">
          <mxGeometry x="410" y="40" width="340" height="880" as="geometry" />
        </mxCell>
        <mxCell id="AcevZHNtAe4sHsJASTdG-28" value="[Yes]" style="text;html=1;align=center;verticalAlign=middle;whiteSpace=wrap;rounded=0;" parent="1c1d494c118603dd-3" vertex="1">
          <mxGeometry x="150" y="595" width="50" height="20" as="geometry" />
        </mxCell>
        <mxCell id="AcevZHNtAe4sHsJASTdG-39" value="Pre-Expiry Period Valid?" style="text;html=1;align=center;verticalAlign=middle;whiteSpace=wrap;rounded=0;" parent="1c1d494c118603dd-3" vertex="1">
          <mxGeometry x="160" y="560" width="90" height="20" as="geometry" />
        </mxCell>
        <mxCell id="AcevZHNtAe4sHsJASTdG-11" value="Display Entered Date" style="rounded=1;whiteSpace=wrap;html=1;shadow=0;comic=0;labelBackgroundColor=none;strokeWidth=1;fontFamily=Verdana;fontSize=12;align=center;arcSize=50;" parent="1c1d494c118603dd-3" vertex="1">
          <mxGeometry x="182.5" y="210" width="135" height="40" as="geometry" />
        </mxCell>
        <mxCell id="AcevZHNtAe4sHsJASTdG-12" value="Display Scanned Date" style="rounded=1;whiteSpace=wrap;html=1;shadow=0;comic=0;labelBackgroundColor=none;strokeWidth=1;fontFamily=Verdana;fontSize=12;align=center;arcSize=50;" parent="1c1d494c118603dd-3" vertex="1">
          <mxGeometry x="13.75" y="220" width="142.5" height="40" as="geometry" />
        </mxCell>
        <mxCell id="AcevZHNtAe4sHsJASTdG-13" value="Enter Expiry Date Manually" style="rounded=1;whiteSpace=wrap;html=1;shadow=0;comic=0;labelBackgroundColor=none;strokeWidth=1;fontFamily=Verdana;fontSize=12;align=center;arcSize=50;" parent="1c1d494c118603dd-3" vertex="1">
          <mxGeometry x="200" y="122.5" width="100" height="45" as="geometry" />
        </mxCell>
        <mxCell id="AcevZHNtAe4sHsJASTdG-36" style="edgeStyle=orthogonalEdgeStyle;rounded=0;orthogonalLoop=1;jettySize=auto;html=1;entryX=0.5;entryY=0;entryDx=0;entryDy=0;" parent="1c1d494c118603dd-3" source="AcevZHNtAe4sHsJASTdG-13" target="AcevZHNtAe4sHsJASTdG-11" edge="1">
          <mxGeometry relative="1" as="geometry" />
        </mxCell>
        <mxCell id="AcevZHNtAe4sHsJASTdG-25" value="Expiry Date Scanned?" style="text;html=1;align=center;verticalAlign=middle;whiteSpace=wrap;rounded=0;" parent="1c1d494c118603dd-3" vertex="1">
          <mxGeometry x="1" y="114" width="80" height="20" as="geometry" />
        </mxCell>
        <mxCell id="lcUcM92FQhq3fFJMBo8H-6" value="Pre-Expiry Period has a default value based on the item category" style="whiteSpace=wrap;html=1;shape=mxgraph.basic.document" parent="10VLK3irHOZnj4mH4-Rl-1" vertex="1">
          <mxGeometry y="390" width="80" height="95" as="geometry" />
        </mxCell>
        <mxCell id="AcevZHNtAe4sHsJASTdG-1" value="" style="ellipse;whiteSpace=wrap;html=1;rounded=0;shadow=0;comic=0;labelBackgroundColor=none;strokeWidth=1;fillColor=#000000;fontFamily=Verdana;fontSize=12;align=center;" parent="10VLK3irHOZnj4mH4-Rl-1" vertex="1">
          <mxGeometry x="240" y="70" width="40" height="40" as="geometry" />
        </mxCell>
        <mxCell id="AcevZHNtAe4sHsJASTdG-14" value="Scan Expiry Date" style="rounded=1;whiteSpace=wrap;html=1;shadow=0;comic=0;labelBackgroundColor=none;strokeWidth=1;fontFamily=Verdana;fontSize=12;align=center;arcSize=50;" parent="10VLK3irHOZnj4mH4-Rl-1" vertex="1">
          <mxGeometry x="202.5" y="170" width="115" height="30" as="geometry" />
        </mxCell>
        <mxCell id="AcevZHNtAe4sHsJASTdG-15" style="edgeStyle=orthogonalEdgeStyle;rounded=0;orthogonalLoop=1;jettySize=auto;html=1;entryX=0.5;entryY=0;entryDx=0;entryDy=0;" parent="10VLK3irHOZnj4mH4-Rl-1" source="AcevZHNtAe4sHsJASTdG-1" target="AcevZHNtAe4sHsJASTdG-14" edge="1">
          <mxGeometry relative="1" as="geometry" />
        </mxCell>
        <mxCell id="AcevZHNtAe4sHsJASTdG-10" value="Confirm Expiry Date" style="rounded=1;whiteSpace=wrap;html=1;shadow=0;comic=0;labelBackgroundColor=none;strokeWidth=1;fontFamily=Verdana;fontSize=12;align=center;arcSize=50;" parent="10VLK3irHOZnj4mH4-Rl-1" vertex="1">
          <mxGeometry x="215" y="360" width="135" height="30" as="geometry" />
        </mxCell>
        <mxCell id="AcevZHNtAe4sHsJASTdG-9" value="Change Expiry Date" style="rounded=1;whiteSpace=wrap;html=1;shadow=0;comic=0;labelBackgroundColor=none;strokeWidth=1;fontFamily=Verdana;fontSize=12;align=center;arcSize=50;" parent="10VLK3irHOZnj4mH4-Rl-1" vertex="1">
          <mxGeometry x="250" y="430" width="130" height="30" as="geometry" />
        </mxCell>
        <mxCell id="lcUcM92FQhq3fFJMBo8H-16" value="" style="rhombus;whiteSpace=wrap;html=1;" parent="10VLK3irHOZnj4mH4-Rl-1" vertex="1">
          <mxGeometry x="180" y="440" width="30" height="30" as="geometry" />
        </mxCell>
        <mxCell id="lcUcM92FQhq3fFJMBo8H-17" style="edgeStyle=orthogonalEdgeStyle;rounded=0;orthogonalLoop=1;jettySize=auto;html=1;entryX=0.5;entryY=0;entryDx=0;entryDy=0;" parent="10VLK3irHOZnj4mH4-Rl-1" source="AcevZHNtAe4sHsJASTdG-10" target="lcUcM92FQhq3fFJMBo8H-16" edge="1">
          <mxGeometry relative="1" as="geometry" />
        </mxCell>
        <mxCell id="lcUcM92FQhq3fFJMBo8H-31" value="Enter Expiry Date - Notify Pre-Expiry&amp;nbsp;" style="text;strokeColor=none;fillColor=none;html=1;fontSize=24;fontStyle=1;verticalAlign=middle;align=center;" parent="10VLK3irHOZnj4mH4-Rl-1" vertex="1">
          <mxGeometry x="360" width="100" height="40" as="geometry" />
        </mxCell>
        <mxCell id="lcUcM92FQhq3fFJMBo8H-32" value="&lt;font style=&quot;font-size: 11px;&quot;&gt;If the current date is in the Pre-Expiry Period&amp;nbsp;&lt;/font&gt;" style="whiteSpace=wrap;html=1;shape=mxgraph.basic.document" parent="10VLK3irHOZnj4mH4-Rl-1" vertex="1">
          <mxGeometry x="760" y="580" width="70" height="80" as="geometry" />
        </mxCell>
        <mxCell id="lcUcM92FQhq3fFJMBo8H-36" value="for each item" style="whiteSpace=wrap;html=1;shape=mxgraph.basic.document" parent="10VLK3irHOZnj4mH4-Rl-1" vertex="1">
          <mxGeometry x="760" y="730" width="60" height="60" as="geometry" />
        </mxCell>
        <mxCell id="AcevZHNtAe4sHsJASTdG-20" value="" style="rhombus;whiteSpace=wrap;html=1;" parent="10VLK3irHOZnj4mH4-Rl-1" vertex="1">
          <mxGeometry x="480" y="170" width="30" height="30" as="geometry" />
        </mxCell>
        <mxCell id="AcevZHNtAe4sHsJASTdG-21" style="edgeStyle=orthogonalEdgeStyle;rounded=0;orthogonalLoop=1;jettySize=auto;html=1;entryX=0;entryY=0.5;entryDx=0;entryDy=0;" parent="10VLK3irHOZnj4mH4-Rl-1" source="AcevZHNtAe4sHsJASTdG-14" target="AcevZHNtAe4sHsJASTdG-20" edge="1">
          <mxGeometry relative="1" as="geometry" />
        </mxCell>
        <mxCell id="AcevZHNtAe4sHsJASTdG-26" style="edgeStyle=orthogonalEdgeStyle;rounded=0;orthogonalLoop=1;jettySize=auto;html=1;entryX=0;entryY=0.5;entryDx=0;entryDy=0;" parent="10VLK3irHOZnj4mH4-Rl-1" source="AcevZHNtAe4sHsJASTdG-20" target="AcevZHNtAe4sHsJASTdG-13" edge="1">
          <mxGeometry relative="1" as="geometry" />
        </mxCell>
        <mxCell id="AcevZHNtAe4sHsJASTdG-31" value="[No]" style="text;html=1;align=center;verticalAlign=middle;whiteSpace=wrap;rounded=0;" parent="10VLK3irHOZnj4mH4-Rl-1" vertex="1">
          <mxGeometry x="510" y="165" width="50" height="20" as="geometry" />
        </mxCell>
        <mxCell id="AcevZHNtAe4sHsJASTdG-33" style="edgeStyle=orthogonalEdgeStyle;rounded=0;orthogonalLoop=1;jettySize=auto;html=1;entryX=0.5;entryY=0;entryDx=0;entryDy=0;" parent="10VLK3irHOZnj4mH4-Rl-1" source="AcevZHNtAe4sHsJASTdG-20" target="AcevZHNtAe4sHsJASTdG-12" edge="1">
          <mxGeometry relative="1" as="geometry" />
        </mxCell>
        <mxCell id="AcevZHNtAe4sHsJASTdG-29" value="[Yes]" style="text;html=1;align=center;verticalAlign=middle;whiteSpace=wrap;rounded=0;" parent="10VLK3irHOZnj4mH4-Rl-1" vertex="1">
          <mxGeometry x="488" y="210" width="50" height="20" as="geometry" />
        </mxCell>
        <mxCell id="AcevZHNtAe4sHsJASTdG-19" value="" style="rhombus;whiteSpace=wrap;html=1;" parent="10VLK3irHOZnj4mH4-Rl-1" vertex="1">
          <mxGeometry x="480" y="360" width="30" height="30" as="geometry" />
        </mxCell>
        <mxCell id="AcevZHNtAe4sHsJASTdG-41" style="edgeStyle=orthogonalEdgeStyle;rounded=0;orthogonalLoop=1;jettySize=auto;html=1;" parent="10VLK3irHOZnj4mH4-Rl-1" source="AcevZHNtAe4sHsJASTdG-19" target="AcevZHNtAe4sHsJASTdG-10" edge="1">
          <mxGeometry relative="1" as="geometry" />
        </mxCell>
        <mxCell id="AcevZHNtAe4sHsJASTdG-42" style="edgeStyle=orthogonalEdgeStyle;rounded=0;orthogonalLoop=1;jettySize=auto;html=1;entryX=1;entryY=0.5;entryDx=0;entryDy=0;" parent="10VLK3irHOZnj4mH4-Rl-1" source="AcevZHNtAe4sHsJASTdG-19" target="AcevZHNtAe4sHsJASTdG-9" edge="1">
          <mxGeometry relative="1" as="geometry">
            <Array as="points">
              <mxPoint x="495" y="445" />
            </Array>
          </mxGeometry>
        </mxCell>
        <mxCell id="lcUcM92FQhq3fFJMBo8H-4" style="edgeStyle=orthogonalEdgeStyle;rounded=0;orthogonalLoop=1;jettySize=auto;html=1;entryX=1;entryY=1;entryDx=0;entryDy=0;" parent="10VLK3irHOZnj4mH4-Rl-1" source="AcevZHNtAe4sHsJASTdG-9" target="AcevZHNtAe4sHsJASTdG-19" edge="1">
          <mxGeometry relative="1" as="geometry">
            <Array as="points">
              <mxPoint x="330" y="480" />
              <mxPoint x="520" y="480" />
              <mxPoint x="520" y="383" />
            </Array>
          </mxGeometry>
        </mxCell>
        <mxCell id="AcevZHNtAe4sHsJASTdG-37" style="edgeStyle=orthogonalEdgeStyle;rounded=0;orthogonalLoop=1;jettySize=auto;html=1;entryX=0.5;entryY=0;entryDx=0;entryDy=0;" parent="10VLK3irHOZnj4mH4-Rl-1" source="AcevZHNtAe4sHsJASTdG-12" target="AcevZHNtAe4sHsJASTdG-19" edge="1">
          <mxGeometry relative="1" as="geometry" />
        </mxCell>
        <mxCell id="AcevZHNtAe4sHsJASTdG-59" style="edgeStyle=orthogonalEdgeStyle;rounded=0;orthogonalLoop=1;jettySize=auto;html=1;entryX=1;entryY=0.5;entryDx=0;entryDy=0;" parent="10VLK3irHOZnj4mH4-Rl-1" source="AcevZHNtAe4sHsJASTdG-11" target="AcevZHNtAe4sHsJASTdG-19" edge="1">
          <mxGeometry relative="1" as="geometry">
            <Array as="points">
              <mxPoint x="660" y="375" />
            </Array>
          </mxGeometry>
        </mxCell>
        <mxCell id="AcevZHNtAe4sHsJASTdG-40" value="Confirm Expiry Date?" style="text;html=1;align=center;verticalAlign=middle;whiteSpace=wrap;rounded=0;" parent="10VLK3irHOZnj4mH4-Rl-1" vertex="1">
          <mxGeometry x="520" y="344" width="75" height="20" as="geometry" />
        </mxCell>
        <mxCell id="AcevZHNtAe4sHsJASTdG-18" value="" style="rhombus;whiteSpace=wrap;html=1;" parent="10VLK3irHOZnj4mH4-Rl-1" vertex="1">
          <mxGeometry x="645" y="620" width="30" height="30" as="geometry" />
        </mxCell>
        <mxCell id="lcUcM92FQhq3fFJMBo8H-19" style="edgeStyle=orthogonalEdgeStyle;rounded=0;orthogonalLoop=1;jettySize=auto;html=1;entryX=0.5;entryY=0;entryDx=0;entryDy=0;" parent="10VLK3irHOZnj4mH4-Rl-1" source="AcevZHNtAe4sHsJASTdG-8" target="AcevZHNtAe4sHsJASTdG-18" edge="1">
          <mxGeometry relative="1" as="geometry" />
        </mxCell>
        <mxCell id="lcUcM92FQhq3fFJMBo8H-25" style="edgeStyle=orthogonalEdgeStyle;rounded=0;orthogonalLoop=1;jettySize=auto;html=1;entryX=1;entryY=0.5;entryDx=0;entryDy=0;" parent="10VLK3irHOZnj4mH4-Rl-1" source="lcUcM92FQhq3fFJMBo8H-16" target="AcevZHNtAe4sHsJASTdG-18" edge="1">
          <mxGeometry relative="1" as="geometry">
            <Array as="points">
              <mxPoint x="230" y="455" />
              <mxPoint x="230" y="500" />
              <mxPoint x="695" y="500" />
              <mxPoint x="695" y="635" />
            </Array>
          </mxGeometry>
        </mxCell>
        <mxCell id="AcevZHNtAe4sHsJASTdG-30" value="[No]" style="text;html=1;align=center;verticalAlign=middle;whiteSpace=wrap;rounded=0;" parent="10VLK3irHOZnj4mH4-Rl-1" vertex="1">
          <mxGeometry x="620" y="660" width="50" height="20" as="geometry" />
        </mxCell>
        <mxCell id="AcevZHNtAe4sHsJASTdG-49" value="Notify User" style="rounded=1;whiteSpace=wrap;html=1;shadow=0;comic=0;labelBackgroundColor=none;strokeWidth=1;fontFamily=Verdana;fontSize=12;align=center;arcSize=50;" parent="10VLK3irHOZnj4mH4-Rl-1" vertex="1">
          <mxGeometry x="450" y="620" width="100" height="30" as="geometry" />
        </mxCell>
        <mxCell id="AcevZHNtAe4sHsJASTdG-54" style="edgeStyle=orthogonalEdgeStyle;rounded=0;orthogonalLoop=1;jettySize=auto;html=1;entryX=1;entryY=0.5;entryDx=0;entryDy=0;" parent="10VLK3irHOZnj4mH4-Rl-1" source="AcevZHNtAe4sHsJASTdG-49" target="AcevZHNtAe4sHsJASTdG-48" edge="1">
          <mxGeometry relative="1" as="geometry" />
        </mxCell>
        <mxCell id="AcevZHNtAe4sHsJASTdG-53" style="edgeStyle=orthogonalEdgeStyle;rounded=0;orthogonalLoop=1;jettySize=auto;html=1;" parent="10VLK3irHOZnj4mH4-Rl-1" source="AcevZHNtAe4sHsJASTdG-18" target="AcevZHNtAe4sHsJASTdG-49" edge="1">
          <mxGeometry relative="1" as="geometry" />
        </mxCell>
        <mxCell id="AcevZHNtAe4sHsJASTdG-7" value="Display Locations" style="rounded=1;whiteSpace=wrap;html=1;shadow=0;comic=0;labelBackgroundColor=none;strokeWidth=1;fontFamily=Verdana;fontSize=12;align=center;arcSize=50;" parent="10VLK3irHOZnj4mH4-Rl-1" vertex="1">
          <mxGeometry x="520" y="730" width="100" height="40" as="geometry" />
        </mxCell>
        <mxCell id="AcevZHNtAe4sHsJASTdG-2" value="" style="shape=mxgraph.bpmn.shape;html=1;verticalLabelPosition=bottom;labelBackgroundColor=#ffffff;verticalAlign=top;perimeter=ellipsePerimeter;outline=end;symbol=terminate;rounded=0;shadow=0;comic=0;strokeWidth=1;fontFamily=Verdana;fontSize=12;align=center;" parent="10VLK3irHOZnj4mH4-Rl-1" vertex="1">
          <mxGeometry x="550" y="840" width="40" height="40" as="geometry" />
        </mxCell>
        <mxCell id="AcevZHNtAe4sHsJASTdG-56" style="edgeStyle=orthogonalEdgeStyle;rounded=0;orthogonalLoop=1;jettySize=auto;html=1;entryX=0.5;entryY=0;entryDx=0;entryDy=0;" parent="10VLK3irHOZnj4mH4-Rl-1" source="AcevZHNtAe4sHsJASTdG-7" target="AcevZHNtAe4sHsJASTdG-2" edge="1">
          <mxGeometry relative="1" as="geometry" />
        </mxCell>
        <mxCell id="lcUcM92FQhq3fFJMBo8H-2" value="[Yes]" style="text;html=1;align=center;verticalAlign=middle;whiteSpace=wrap;rounded=0;" parent="10VLK3irHOZnj4mH4-Rl-1" vertex="1">
          <mxGeometry x="435" y="350" width="50" height="20" as="geometry" />
        </mxCell>
        <mxCell id="lcUcM92FQhq3fFJMBo8H-3" value="[No]" style="text;html=1;align=center;verticalAlign=middle;whiteSpace=wrap;rounded=0;" parent="10VLK3irHOZnj4mH4-Rl-1" vertex="1">
          <mxGeometry x="430" y="420" width="50" height="20" as="geometry" />
        </mxCell>
        <mxCell id="lcUcM92FQhq3fFJMBo8H-35" style="edgeStyle=orthogonalEdgeStyle;rounded=0;orthogonalLoop=1;jettySize=auto;html=1;entryX=1;entryY=1;entryDx=0;entryDy=0;" parent="10VLK3irHOZnj4mH4-Rl-1" source="lcUcM92FQhq3fFJMBo8H-33" target="AcevZHNtAe4sHsJASTdG-18" edge="1">
          <mxGeometry relative="1" as="geometry">
            <Array as="points">
              <mxPoint x="730" y="790" />
              <mxPoint x="730" y="643" />
            </Array>
          </mxGeometry>
        </mxCell>
        <mxCell id="lcUcM92FQhq3fFJMBo8H-33" value="Continue Monitoring" style="rounded=1;whiteSpace=wrap;html=1;shadow=0;comic=0;labelBackgroundColor=none;strokeWidth=1;fontFamily=Verdana;fontSize=12;align=center;arcSize=50;" parent="10VLK3irHOZnj4mH4-Rl-1" vertex="1">
          <mxGeometry x="610" y="770" width="100" height="40" as="geometry" />
        </mxCell>
        <mxCell id="lcUcM92FQhq3fFJMBo8H-34" style="edgeStyle=orthogonalEdgeStyle;rounded=0;orthogonalLoop=1;jettySize=auto;html=1;" parent="10VLK3irHOZnj4mH4-Rl-1" source="AcevZHNtAe4sHsJASTdG-18" target="lcUcM92FQhq3fFJMBo8H-33" edge="1">
          <mxGeometry relative="1" as="geometry" />
        </mxCell>
        <mxCell id="RQi3Ylo1NKZxRyTKCZcU-2" style="edgeStyle=orthogonalEdgeStyle;rounded=0;orthogonalLoop=1;jettySize=auto;html=1;exitX=0.5;exitY=1;exitDx=0;exitDy=0;entryX=0.462;entryY=0.008;entryDx=0;entryDy=0;entryPerimeter=0;" edge="1" parent="10VLK3irHOZnj4mH4-Rl-1" source="lcUcM92FQhq3fFJMBo8H-16" target="AcevZHNtAe4sHsJASTdG-8">
          <mxGeometry relative="1" as="geometry" />
        </mxCell>
        <mxCell id="RQi3Ylo1NKZxRyTKCZcU-3" style="edgeStyle=orthogonalEdgeStyle;rounded=0;orthogonalLoop=1;jettySize=auto;html=1;entryX=0;entryY=0.5;entryDx=0;entryDy=0;" edge="1" parent="10VLK3irHOZnj4mH4-Rl-1" source="AcevZHNtAe4sHsJASTdG-48" target="AcevZHNtAe4sHsJASTdG-7">
          <mxGeometry relative="1" as="geometry">
            <Array as="points">
              <mxPoint x="272" y="750" />
            </Array>
          </mxGeometry>
        </mxCell>
      </root>
    </mxGraphModel>
  </diagram>
</mxfile>
